<?xml version="1.0" encoding="utf-8"?>
<!-- Generator: Adobe Illustrator 19.0.0, SVG Export Plug-In . SVG Version: 6.00 Build 0)  -->
<svg version="1.1" id="Layer_1" xmlns="http://www.w3.org/2000/svg" xmlns:xlink="http://www.w3.org/1999/xlink" x="0px" y="0px"
	 viewBox="0 0 50 50" style="enable-background:new 0 0 50 50;" xml:space="preserve">
<style type="text/css">
	.st0{fill:#C31F42;}
</style>
<g id="XMLID_2_">
	<path id="XMLID_3_" class="st0" d="M33.3,18.5c-1.8-1.8-4-2.7-6.5-2.7c-2.5,0-4.7,0.9-6.5,2.7c-1.8,1.8-2.7,4-2.7,6.5
		c0,2.6,0.9,4.7,2.7,6.5c1.8,1.8,4,2.7,6.5,2.7c2.6,0,4.7-0.9,6.5-2.7l2.1,2.1c-2.4,2.4-5.3,3.6-8.6,3.6c-3.4,0-6.2-1.2-8.6-3.6
		c-2.4-2.4-3.6-5.3-3.6-8.6s1.2-6.2,3.6-8.6c2.4-2.4,5.3-3.6,8.6-3.6c3.4,0,6.2,1.2,8.6,3.6L33.3,18.5z M32.6,30.8
		c-1.6,1.6-3.6,2.4-5.8,2.4s-4.2-0.8-5.8-2.4c-1.6-1.6-2.4-3.6-2.4-5.8s0.8-4.2,2.4-5.8c1.6-1.6,3.6-2.4,5.8-2.4s4.2,0.8,5.8,2.4
		l-2.1,2.1c-1-1-2.3-1.5-3.7-1.5c-1.4,0-2.7,0.5-3.7,1.5c-1,1-1.5,2.3-1.5,3.7s0.5,2.7,1.5,3.7c1,1,2.3,1.5,3.7,1.5
		c1.5,0,2.7-0.5,3.7-1.5L32.6,30.8z"/>
</g>
<g id="XMLID_1_">
</g>
<g id="XMLID_6_">
</g>
<g id="XMLID_7_">
</g>
<g id="XMLID_8_">
</g>
<g id="XMLID_9_">
</g>
<g id="XMLID_10_">
</g>
</svg>
