<?xml version="1.0" encoding="utf-8"?>
<!-- Generator: Adobe Illustrator 19.0.0, SVG Export Plug-In . SVG Version: 6.00 Build 0)  -->
<svg version="1.1" id="Layer_1" xmlns="http://www.w3.org/2000/svg" xmlns:xlink="http://www.w3.org/1999/xlink" x="0px" y="0px"
	 viewBox="0 0 50 50" style="enable-background:new 0 0 50 50;" xml:space="preserve">
<style type="text/css">
	.st0{fill:#FFFFFF;}
	.st1{fill:#35383C;}
	.st2{fill:#55B864;}
	.st3{fill:#069247;}
	.st4{fill:#05A451;}
	.st5{fill:#04A451;}
	.st6{fill:#069347;}
	.st7{fill:#392636;}
	.st8{fill:#03A451;}
	.st9{fill:#059247;}
	.st10{fill:#048743;}
</style>
<g id="XMLID_4_">
	<path id="XMLID_23_" d="M0,11.8489c0-0.2898,0-0.5795,0-0.8693c0.0116-0.0805,0.026-0.1608,0.0341-0.2417
		c0.0267-0.2661,0.0451-0.5332,0.0775-0.7986C0.1972,9.2378,0.3569,8.5523,0.5773,7.881c1.1666-3.5534,3.9881-6.2874,7.5876-7.3502
		c0.8297-0.245,1.6771-0.3899,2.5414-0.4384c0.7285-0.0409,1.4541-0.0146,2.1768,0.0831c0.5647,0.0763,1.1214,0.1931,1.6672,0.3572
		c2.5037,0.753,4.546,2.1943,6.077,4.3623c1.2953,1.8342,2.2105,5.2469,2.0241,7.4847c-0.0026,0.0317-0.0055,0.0635-0.0085,0.0952
		c-0.0554,0.5776-0.1477,1.1488-0.2941,1.7098c-0.6949,2.6626-2.1457,4.8178-4.3749,6.4324
		c-1.8381,1.3313-3.9053,2.0283-6.1713,2.1294c-0.7279,0.0325-1.4534-0.0108-2.1745-0.1238
		c-0.6758-0.1059-1.3377-0.2657-1.9829-0.4921c-2.1852-0.7668-3.9782-2.0738-5.371-3.9232
		c-0.9719-1.2905-1.6279-2.7303-1.9853-4.3053c-0.1353-0.5964-0.2213-1.2003-0.2552-1.8114C0.0292,12.0097,0.0116,11.9295,0,11.8489
		z M11.6116,9.0756c-0.0263-0.0196-0.0472-0.0327-0.0653-0.049c-0.1939-0.1752-0.388-0.3503-0.5809-0.5266
		c-0.2139-0.1955-0.4306-0.3877-0.6674-0.5557c-0.5274-0.3744-1.1117-0.5985-1.7575-0.646
		C8.0281,7.2605,7.5384,7.3588,7.0772,7.5883c-0.8227,0.4094-1.4695,1.0532-1.3528,2.6335
		c0.0006,0.0085,0.0021,0.0179,0.0041,0.0261c0.1262,0.505,0.3807,0.9431,0.7303,1.326c0.2335,0.2559,0.4737,0.5057,0.7074,0.7614
		c0.0654,0.0716,0.1266,0.1497,0.176,0.2329c0.1951,0.3286,0.1979,0.6659,0.0103,0.9961c-0.2082,0.3664-0.5414,0.5543-0.9508,0.6043
		c-0.3666,0.0448-0.7055-0.0528-1.016-0.2476c-0.0659-0.0413-0.127-0.0939-0.1803-0.1507
		c-0.1183-0.1262-0.1384-0.2716-0.0584-0.4263c0.0331-0.0642,0.0742-0.1242,0.1102-0.187c0.1464-0.2557,0.2288-0.5258,0.1666-0.8227
		c-0.0746-0.3565-0.2694-0.6049-0.64-0.6873c-0.0368-0.0082-0.074-0.0156-0.1115-0.0195c-0.3063-0.032-0.5601,0.0573-0.7331,0.3247
		c-0.094,0.1453-0.1441,0.307-0.1611,0.4786c-0.0354,0.3578,0.053,0.6871,0.2357,0.9927c0.1953,0.3268,0.4675,0.5779,0.7959,0.7633
		c0.7776,0.4391,1.6079,0.6067,2.4916,0.4384c0.5574-0.1061,1.0464-0.355,1.4465-0.7631c0.3823-0.39,0.6032-0.856,0.6377-1.4042
		c0.0228-0.3609-0.0634-0.6994-0.225-1.0204c-0.1367-0.2714-0.3073-0.5213-0.5038-0.7514
		c-0.2781-0.3255-0.5653-0.6433-0.8495-0.9636C7.56,9.4438,7.4516,9.1231,7.5284,8.7542C7.615,8.3383,8.0009,7.9853,8.4219,7.9221
		C8.5727,7.8994,8.7236,7.9017,8.8734,7.925C9.196,7.9752,9.5013,8.0787,9.789,8.2338c0.296,0.1596,0.5544,0.3696,0.8045,0.5918
		c0.266,0.2363,0.5341,0.4701,0.8012,0.705c0.0184,0.0161,0.0367,0.0323,0.0505,0.0445c-0.0877,0.3261-0.1796,0.6433-0.2578,0.9638
		c-0.1944,0.7958-0.3619,1.597-0.505,2.4037c-0.1368,0.7713-0.2782,1.5419-0.4618,2.3034c-0.1711,0.7097-0.3565,1.4148-0.6584,2.081
		c-0.199,0.4391-0.4482,0.845-0.7891,1.19C8.5401,18.7528,8.2745,18.94,7.96,19.0517c-0.1617,0.0574-0.3286,0.0877-0.5005,0.0721
		c-0.1155-0.0105-0.2022-0.0687-0.2431-0.1808c-0.0386-0.1058,0.008-0.1897,0.0791-0.2641c0.0195-0.0204,0.0409-0.0396,0.0638-0.056
		c0.0511-0.0366,0.1025-0.073,0.1558-0.1062c0.1477-0.0918,0.2399-0.2229,0.2675-0.3935c0.0941-0.5821-0.3117-1.0659-0.8815-1.1168
		c-0.493-0.044-0.9889,0.3111-1.1593,0.7232c-0.1951,0.4717-0.0587,1.0433,0.3396,1.394c0.3467,0.3053,0.7633,0.428,1.2135,0.4539
		c0.4788,0.0276,0.9389-0.0661,1.3845-0.2363c0.7013-0.2678,1.293-0.6987,1.8104-1.2351c0.7407-0.7678,1.3038-1.653,1.7226-2.6324
		c0.3015-0.7051,0.5163-1.4375,0.6963-2.1815c0.2088-0.863,0.3489-1.7391,0.5103-2.6112c0.0198-0.1071,0.0404-0.214,0.0605-0.3207
		c0.0964,0.0076,0.1809,0.0142,0.2654,0.021c0.4981,0.0397,0.9937,0.0301,1.4833-0.0818c0.4057-0.0928,0.7864-0.2441,1.1226-0.4944
		c0.254-0.189,0.465-0.4157,0.587-0.713c0.1386-0.3375,0.1095-0.6611-0.1073-0.9569c-0.1439-0.1964-0.34-0.2896-0.5905-0.2599
		c-0.3219,0.0381-0.6012,0.2747-0.6739,0.5895c-0.0143,0.0618-0.0143,0.1335,0.0023,0.1943
		c0.0228,0.0838,0.0654,0.1626,0.1034,0.2417c0.0409,0.0849,0.0924,0.1652,0.1285,0.2519c0.0666,0.1599,0.0326,0.2848-0.1002,0.3955
		c-0.0361,0.0301-0.0757,0.0566-0.1159,0.0811c-0.1433,0.0873-0.2977,0.1495-0.4585,0.1956
		c-0.4646,0.1331-0.9371,0.1388-1.413,0.0845c-0.0463-0.0053-0.0924-0.0123-0.1452-0.0194
		c0.0036-0.0337,0.0049-0.0615,0.0098-0.0886c0.0728-0.396,0.1435-0.7924,0.22-1.1877c0.1052-0.5436,0.2193-1.0852,0.3772-1.6166
		c0.1248-0.4201,0.2736-0.8307,0.4902-1.2137c0.1451-0.2566,0.3179-0.4916,0.5424-0.6854c0.3237-0.2795,0.7008-0.4127,1.127-0.4079
		c0.1171,0.0013,0.2321,0.0208,0.3385,0.0733c0.1535,0.0758,0.2038,0.2143,0.1362,0.3711c-0.0112,0.026-0.0238,0.0514-0.0374,0.0763
		c-0.0452,0.0828-0.0925,0.1646-0.1367,0.2479c-0.1841,0.3472-0.0946,0.7775,0.209,1.0018c0.138,0.102,0.2954,0.1483,0.4656,0.1624
		c0.4241,0.0352,0.7223-0.1562,0.8887-0.4767c0.2422-0.4666,0.1557-0.9954-0.222-1.3607c-0.187-0.1808-0.4095-0.303-0.6548-0.3822
		c-0.5889-0.1901-1.183-0.1824-1.7769-0.0272c-0.6282,0.1642-1.1684,0.4899-1.6501,0.9186
		c-0.3188,0.2837-0.5957,0.6036-0.8473,0.9447c-0.4958,0.672-1.1098,1.8845-1.3773,2.6757
		C11.652,8.967,11.6337,9.0151,11.6116,9.0756z"/>
	<path id="XMLID_22_" class="st0" d="M0,11.8489c0.0116,0.0806,0.0292,0.1608,0.0337,0.2417
		c0.0338,0.6111,0.1199,1.215,0.2552,1.8114c0.3574,1.5751,1.0134,3.0149,1.9853,4.3053c1.3928,1.8494,3.1859,3.1564,5.371,3.9232
		c0.6452,0.2264,1.3071,0.3862,1.9829,0.4921c0.7211,0.113,1.4466,0.1563,2.1745,0.1238c2.266-0.1011,4.3332-0.7981,6.1713-2.1294
		c2.2293-1.6146,3.68-3.7698,4.3749-6.4324c0.1464-0.561,0.2387-1.1323,0.2941-1.7098c0.003-0.0317,0.0059-0.0635,0.0085-0.0952
		c0.1864-2.2378-0.7288-5.6504-2.0241-7.4847c-1.531-2.168-3.5733-3.6093-6.077-4.3623c-0.5458-0.1641-1.1026-0.2809-1.6672-0.3572
		c-0.7227-0.0977-1.4483-0.124-2.1768-0.0831C9.842,0.1408,8.9946,0.2858,8.1649,0.5308C4.5653,1.5936,1.7438,4.3275,0.5773,7.881
		C0.3569,8.5523,0.1972,9.2378,0.1116,9.9394c-0.0324,0.2654-0.0508,0.5325-0.0775,0.7986C0.026,10.8188,0.0116,10.8991,0,10.9796
		C0,7.3198,0,3.6599,0,0h22.6963v22.7908H0C0,19.1435,0,15.4962,0,11.8489z"/>
	<path id="XMLID_21_" class="st0" d="M11.6116,9.0756c0.0221-0.0605,0.0404-0.1086,0.0579-0.1604
		c0.2675-0.7911,0.8816-2.0036,1.3773-2.6757c0.2517-0.3411,0.5285-0.661,0.8473-0.9447c0.4817-0.4286,1.0219-0.7544,1.6501-0.9186
		c0.5939-0.1552,1.188-0.1629,1.7769,0.0272c0.2453,0.0792,0.4678,0.2014,0.6548,0.3822c0.3778,0.3653,0.4642,0.8941,0.222,1.3607
		c-0.1664,0.3205-0.4645,0.5119-0.8887,0.4767c-0.1702-0.0141-0.3276-0.0604-0.4656-0.1624
		c-0.3036-0.2244-0.3931-0.6546-0.209-1.0018c0.0442-0.0834,0.0914-0.1651,0.1367-0.2479c0.0136-0.0248,0.0262-0.0503,0.0374-0.0763
		c0.0676-0.1568,0.0173-0.2952-0.1362-0.3711c-0.1064-0.0526-0.2214-0.072-0.3385-0.0733c-0.4262-0.0048-0.8033,0.1284-1.127,0.4079
		c-0.2245,0.1939-0.3973,0.4288-0.5424,0.6854c-0.2166,0.383-0.3654,0.7935-0.4902,1.2137
		c-0.1578,0.5313-0.2719,1.073-0.3772,1.6166c-0.0765,0.3953-0.1472,0.7917-0.22,1.1877c-0.005,0.0271-0.0062,0.055-0.0098,0.0886
		c0.0528,0.0071,0.0989,0.0141,0.1452,0.0194c0.4759,0.0542,0.9484,0.0485,1.413-0.0845c0.1608-0.0461,0.3152-0.1083,0.4585-0.1956
		c0.0402-0.0245,0.0798-0.051,0.1159-0.0811c0.1327-0.1107,0.1667-0.2357,0.1002-0.3955c-0.0361-0.0868-0.0876-0.167-0.1285-0.2519
		c-0.0381-0.0791-0.0807-0.1579-0.1034-0.2417c-0.0165-0.0608-0.0165-0.1325-0.0023-0.1943
		c0.0727-0.3148,0.3521-0.5514,0.6739-0.5895c0.2506-0.0297,0.4466,0.0635,0.5905,0.2599c0.2168,0.2958,0.2458,0.6194,0.1073,0.9569
		c-0.1221,0.2974-0.3331,0.524-0.587,0.713c-0.3362,0.2502-0.7169,0.4016-1.1226,0.4944c-0.4896,0.1119-0.9851,0.1215-1.4833,0.0818
		c-0.0845-0.0067-0.169-0.0133-0.2654-0.021c-0.0201,0.1067-0.0407,0.2136-0.0605,0.3207
		c-0.1614,0.8721-0.3015,1.7483-0.5103,2.6112c-0.18,0.744-0.3948,1.4763-0.6963,2.1815c-0.4188,0.9794-0.9819,1.8646-1.7226,2.6324
		c-0.5174,0.5363-1.1091,0.9672-1.8104,1.2351c-0.4456,0.1702-0.9057,0.2639-1.3845,0.2363
		c-0.4501-0.026-0.8667-0.1487-1.2135-0.4539c-0.3983-0.3507-0.5348-0.9223-0.3396-1.394c0.1705-0.4121,0.6663-0.7673,1.1593-0.7232
		c0.5699,0.0509,0.9757,0.5347,0.8815,1.1168C7.755,18.294,7.6628,18.425,7.5151,18.5169C7.4617,18.55,7.4103,18.5864,7.3593,18.623
		c-0.0229,0.0164-0.0443,0.0356-0.0638,0.056c-0.0711,0.0743-0.1177,0.1582-0.0791,0.2641c0.0409,0.112,0.1276,0.1703,0.2431,0.1808
		c0.1719,0.0156,0.3388-0.0147,0.5005-0.0721c0.3146-0.1118,0.5802-0.2989,0.8132-0.5348c0.3409-0.345,0.5901-0.7509,0.7891-1.19
		c0.3019-0.6661,0.4873-1.3713,0.6584-2.081c0.1836-0.7615,0.325-1.5321,0.4618-2.3034c0.1431-0.8067,0.3106-1.6079,0.505-2.4037
		c0.0783-0.3205,0.1702-0.6378,0.2578-0.9638c-0.0138-0.0122-0.0322-0.0283-0.0505-0.0445
		c-0.2672-0.2349-0.5353-0.4687-0.8012-0.705c-0.25-0.2221-0.5085-0.4321-0.8045-0.5918C9.5013,8.0787,9.196,7.9752,8.8734,7.925
		C8.7236,7.9017,8.5727,7.8994,8.4219,7.9221C8.0009,7.9853,7.615,8.3383,7.5284,8.7542C7.4516,9.1231,7.56,9.4438,7.8073,9.7225
		c0.2842,0.3203,0.5714,0.6381,0.8495,0.9636c0.1966,0.2301,0.3672,0.48,0.5038,0.7514c0.1616,0.321,0.2477,0.6595,0.225,1.0204
		c-0.0346,0.5482-0.2555,1.0142-0.6377,1.4042c-0.4001,0.4082-0.8891,0.6571-1.4465,0.7631
		c-0.8837,0.1682-1.714,0.0007-2.4916-0.4384c-0.3284-0.1854-0.6006-0.4365-0.7959-0.7633
		c-0.1827-0.3057-0.2711-0.635-0.2357-0.9927c0.017-0.1716,0.0672-0.3333,0.1611-0.4786c0.1729-0.2674,0.4268-0.3567,0.7331-0.3247
		c0.0374,0.0039,0.0747,0.0113,0.1115,0.0195c0.3706,0.0824,0.5654,0.3308,0.64,0.6873c0.0621,0.2968-0.0203,0.5669-0.1666,0.8227
		c-0.0359,0.0628-0.077,0.1228-0.1102,0.187c-0.0799,0.1547-0.0598,0.3002,0.0584,0.4263c0.0533,0.0568,0.1144,0.1094,0.1803,0.1507
		c0.3105,0.1948,0.6494,0.2924,1.016,0.2476c0.4094-0.05,0.7426-0.2379,0.9508-0.6043c0.1876-0.3302,0.1848-0.6675-0.0103-0.9961
		c-0.0494-0.0832-0.1106-0.1613-0.176-0.2329c-0.2337-0.2557-0.4739-0.5055-0.7074-0.7614c-0.3496-0.383-0.6042-0.821-0.7303-1.326
		c-0.0021-0.0082-0.0035-0.0177-0.0041-0.0261C5.6077,8.6415,6.2546,7.9977,7.0772,7.5883
		c0.4612-0.2295,0.9508-0.3278,1.4633-0.2901c0.6458,0.0475,1.2301,0.2716,1.7575,0.646c0.2368,0.1681,0.4535,0.3602,0.6674,0.5557
		c0.1929,0.1763,0.3869,0.3514,0.5809,0.5266C11.5643,9.0429,11.5852,9.056,11.6116,9.0756z"/>
</g>
<g id="XMLID_5_">
	<path id="XMLID_16_" class="st1" d="M38.7515,50c-6.2156,0.0087-11.2873-5.0346-11.3-11.2367
		c-0.0128-6.237,5.0433-11.3111,11.2719-11.312C44.9338,27.4504,49.9952,32.5045,50,38.7116
		C50.0048,44.9252,44.9566,49.9913,38.7515,50z M38.8157,45.7676c0.0261,0.0023,0.0703,0.015,0.0758,0.0055
		c0.6467-1.1261,1.2905-2.2539,1.9345-3.3817c0.0213-0.0005,0.0421,0.002,0.0627,0.0075c0.0463,0.0509,0.0705,0.0229,0.0892-0.0249
		c1.2326-0.007,2.4653-0.0275,3.6976-0.0136c0.4116,0.0047,0.3942-0.0997,0.2147-0.4016c-0.6369-1.0713-1.2525-2.1552-1.8762-3.2343
		c0.6559-1.1594,1.3117-2.3189,1.9676-3.4783c0.0421-0.2812-0.1785-0.1574-0.2773-0.1589
		c-0.7336-0.0109-1.4674-0.0017-2.2011-0.0069c-0.5289-0.0038-1.1585,0.1531-1.5584-0.0794c-0.4-0.2325-0.5732-0.8583-0.8409-1.3146
		c-0.4046-0.6898-0.8048-1.3821-1.2334-2.1189c-0.6403,1.0981-1.2529,2.1289-1.8419,3.1729
		c-0.1508,0.2673-0.3241,0.355-0.6289,0.3495c-1.1393-0.0204-2.2791-0.0125-3.4186-0.0001
		c-0.0841,0.0009-0.3535-0.1702-0.2672,0.1618c0.6191,1.154,1.2584,2.2963,1.9783,3.3916
		c-0.5592,1.1295-1.2575,2.1796-1.8692,3.2791c-0.0659,0.1185-0.2163,0.2401-0.1546,0.3672c0.0676,0.1392,0.251,0.059,0.3813,0.0605
		c1.2623,0.0146,2.5247,0.0219,3.7872,0.0314C37.4717,43.5245,38.1083,44.6667,38.8157,45.7676z"/>
	<path id="XMLID_59_" class="st2" d="M43.0139,38.7245c0.6237,1.0791,1.2394,2.163,1.8762,3.2343
		c0.1795,0.3019,0.1969,0.4063-0.2147,0.4016c-1.2323-0.014-2.4651,0.0065-3.6976,0.0136
		c-0.0297,0.0083-0.0594,0.0166-0.0892,0.0249c-0.0205-0.0055-0.0414-0.008-0.0628-0.0074
		c-0.6696-0.0032-1.3391-0.0065-2.0085-0.0098c-0.5923,0.0005-1.1847,0.001-1.777,0.0014
		c-0.0679-0.0006-0.1358-0.0012-0.2038-0.0018c-1.2624-0.0094-2.5247-0.0167-3.7871-0.0313
		c-0.1303-0.0015-0.3137,0.0787-0.3813-0.0605c-0.0617-0.1271,0.0887-0.2487,0.1546-0.3672
		c0.6118-1.0995,1.3101-2.1496,1.8692-3.2792c0.3955-0.5001,0.6472-1.0883,0.9906-1.6205c0.059-0.0914,0.1622-0.2058-0.0228-0.3035
		c-0.9706-0.5123-1.9188-1.0692-2.9462-1.4675c-0.0863-0.3319,0.1831-0.1608,0.2672-0.1618
		c1.1395-0.0125,2.2794-0.0203,3.4186,0.0001c0.3048,0.0054,0.4781-0.0822,0.6289-0.3495c0.5891-1.044,1.2017-2.0748,1.8419-3.1729
		c0.4286,0.7368,0.8288,1.4291,1.2334,2.1189c0.2676,0.4563,0.4409,1.0821,0.8409,1.3146c0.4,0.2325,1.0295,0.0757,1.5584,0.0794
		c0.7337,0.0052,1.4675-0.0041,2.2011,0.0069c0.0988,0.0015,0.3195-0.1222,0.2773,0.159c-1.0451,0.3357-1.9298,0.9966-2.9207,1.4426
		c-0.186,0.0837-0.1066,0.2076-0.0261,0.3428C42.3681,37.5917,42.6886,38.1596,43.0139,38.7245z M38.915,42.1027
		c0.9601-1.7275,1.9203-3.4551,2.8804-5.1826c-0.0256-0.0184-0.0511-0.0368-0.0767-0.0552
		c-0.9666,0.4959-1.9332,0.9919-2.8998,1.4878c-0.9551-0.4745-1.8683-1.0353-2.9284-1.4863
		c0.1365,0.251,0.2251,0.4135,0.3133,0.5763c0.8136,1.5019,1.6248,3.0051,2.448,4.5017
		C38.6916,42.0168,38.6834,42.2991,38.915,42.1027z"/>
	<path id="XMLID_58_" class="st3" d="M32.7137,35.2516c1.0274,0.3983,1.9755,0.9553,2.9462,1.4675
		c0.185,0.0976,0.0818,0.212,0.0228,0.3035c-0.3435,0.5322-0.5952,1.1204-0.9906,1.6205
		C33.9721,37.5479,33.3328,36.4056,32.7137,35.2516z"/>
	<path id="XMLID_57_" class="st4" d="M43.0139,38.7245c-0.3253-0.565-0.6458-1.1328-0.9793-1.6929
		c-0.0805-0.1352-0.1599-0.2591,0.0261-0.3428c0.991-0.446,1.8756-1.1069,2.9207-1.4426
		C44.3256,36.4056,43.6697,37.5651,43.0139,38.7245z"/>
	<path id="XMLID_56_" class="st5" d="M38.8172,42.3816c0.6695,0.0033,1.3389,0.0066,2.0086,0.0098
		c-0.6438,1.1276-1.2876,2.2554-1.9343,3.3816c-0.0055,0.0095-0.0497-0.0032-0.0758-0.0055
		c0.0007-1.0974,0.0015-2.1948,0.0022-3.2921C38.8177,42.4441,38.8174,42.4129,38.8172,42.3816z"/>
	<path id="XMLID_55_" class="st6" d="M38.8179,42.4754c-0.0007,1.0974-0.0015,2.1947-0.0022,3.2921
		c-0.7074-1.1008-1.344-2.243-1.9791-3.3862c0.0678,0.0006,0.1357,0.0012,0.2036,0.0018
		C37.6238,42.5866,38.2264,42.4243,38.8179,42.4754z"/>
	<path id="XMLID_54_" class="st7" d="M40.8886,42.3988c0.0297-0.0083,0.0594-0.0166,0.0892-0.0249
		C40.9591,42.4217,40.9349,42.4498,40.8886,42.3988z"/>
	<path id="XMLID_53_" class="st8" d="M38.819,38.3528c0.9666-0.4959,1.9332-0.9919,2.8998-1.4878
		c0.0256,0.0184,0.0511,0.0368,0.0767,0.0552c-0.9601,1.7275-1.9203,3.4551-2.8804,5.1826
		c-0.1063-0.167-0.0963-0.3538-0.0961-0.5403C38.8199,40.4925,38.8191,39.4227,38.819,38.3528z"/>
	<path id="XMLID_52_" class="st9" d="M38.819,38.3528c0.0002,1.0699,0.001,2.1398-0.0001,3.2097
		c-0.0002,0.1865-0.0102,0.3734,0.0961,0.5403c-0.2316,0.1964-0.2234-0.0859-0.2631-0.1583
		c-0.8231-1.4966-1.6343-2.9999-2.448-4.5017c-0.0882-0.1627-0.1768-0.3252-0.3133-0.5763
		C36.9507,37.3175,37.8638,37.8783,38.819,38.3528z"/>
	<path id="XMLID_51_" class="st10" d="M38.8179,42.4754c-0.5915-0.051-1.1941,0.1112-1.7777-0.0923
		c0.5924-0.0005,1.1847-0.001,1.7771-0.0014C38.8174,42.4129,38.8177,42.4441,38.8179,42.4754z"/>
</g>
<g id="XMLID_1_">
	<path id="XMLID_35_" d="M27.2944,29.5775c-1.4996-1.5804-2.9965-3.1579-4.5061-4.7488c0.1126,0.6879,0.2226,1.3594,0.3335,2.0367
		c-0.2108,0.0345-0.4125,0.0683-0.6146,0.1002c-0.0852,0.0134-0.1711,0.0219-0.2564,0.0344
		c-0.0642,0.0094-0.0954-0.0081-0.1078-0.0731c-0.023-0.1203-0.0421-0.2414-0.0633-0.362c-0.031-0.1765-0.0629-0.3529-0.0937-0.5295
		c-0.0293-0.1686-0.0575-0.3373-0.0864-0.506c-0.0355-0.2074-0.0723-0.4146-0.1066-0.6222
		c-0.036-0.2178-0.0684-0.4361-0.1047-0.6538c-0.0466-0.2791-0.0965-0.5577-0.143-0.8369
		c-0.0308-0.1849-0.0572-0.3705-0.0873-0.5555c-0.0354-0.2179-0.0724-0.4355-0.1093-0.6531
		c-0.0183-0.108-0.0384-0.2158-0.0566-0.3239c-0.0017-0.0101,0.0045-0.0216,0.009-0.0413c0.0729,0.0689,0.1421,0.1315,0.208,0.1975
		c0.091,0.0909,0.18,0.1839,0.2689,0.2769c0.1103,0.1154,0.2191,0.2323,0.3295,0.3476c0.0839,0.0878,0.17,0.1735,0.2538,0.2614
		c0.1105,0.1158,0.2192,0.2331,0.3295,0.3491c0.1048,0.1102,0.2113,0.219,0.3158,0.3295c0.1097,0.1159,0.2176,0.2337,0.3273,0.3497
		c0.0817,0.0865,0.1657,0.1708,0.2473,0.2573c0.1309,0.1387,0.2603,0.2788,0.3911,0.4176c0.0802,0.0852,0.1621,0.1687,0.2424,0.2538
		c0.1335,0.1416,0.266,0.2841,0.3994,0.4257c0.0789,0.0837,0.1592,0.166,0.2381,0.2497c0.1348,0.143,0.2684,0.2872,0.4036,0.4299
		c0.1072,0.1133,0.2166,0.2245,0.3237,0.3378c0.1055,0.1116,0.209,0.2252,0.3142,0.3372c0.0801,0.0852,0.162,0.1688,0.2422,0.2539
		c0.1334,0.1416,0.2659,0.2842,0.3993,0.4258c0.0789,0.0837,0.1593,0.1659,0.2382,0.2496c0.1348,0.1431,0.2683,0.2873,0.4035,0.43
		c0.1086,0.1146,0.2197,0.2269,0.3282,0.3417c0.1296,0.1372,0.2572,0.2762,0.3862,0.4138c0.0374,0.0399,0.0768,0.0779,0.1197,0.1212
		C27.7725,29.125,27.5345,29.3502,27.2944,29.5775z"/>
	<path id="XMLID_34_" d="M28.7082,28.1691c-0.1075-0.1084-0.203-0.203-0.2966-0.2996c-0.0867-0.0894-0.171-0.1811-0.2567-0.2714
		c-0.1117-0.1176-0.2236-0.2351-0.3358-0.3522c-0.1054-0.11-0.212-0.2188-0.3169-0.3292c-0.1099-0.1157-0.218-0.233-0.3276-0.349
		c-0.079-0.0836-0.1595-0.1658-0.2386-0.2493c-0.1353-0.1429-0.2695-0.2868-0.4051-0.4293
		c-0.109-0.1146-0.2198-0.2275-0.3291-0.3419c-0.1268-0.1327-0.2531-0.266-0.3792-0.3994c-0.1101-0.1164-0.2195-0.2335-0.3294-0.35
		c-0.1316-0.1396-0.2634-0.279-0.3952-0.4184c-0.1292-0.1366-0.2588-0.273-0.3878-0.4097
		c-0.1303-0.1381-0.2601-0.2768-0.3904-0.4149c-0.1063-0.1126-0.2133-0.2246-0.3196-0.3372
		c-0.1331-0.1409-0.2657-0.2823-0.3988-0.4232c-0.1049-0.111-0.2106-0.2213-0.3153-0.3325
		c-0.1329-0.1411-0.2647-0.2833-0.3977-0.4243c-0.1036-0.1098-0.2087-0.2181-0.3124-0.3278
		c-0.1307-0.1381-0.2605-0.2771-0.391-0.4154c-0.0604-0.064-0.1217-0.1273-0.1866-0.1951c0.2407-0.2277,0.4779-0.4521,0.7153-0.6767
		c1.4957,1.5756,2.9914,3.1512,4.4965,4.7367c-0.0018-0.0351-0.0008-0.0602-0.0048-0.0844c-0.028-0.1684-0.0563-0.3368-0.0859-0.505
		c-0.0462-0.2624-0.0942-0.5246-0.1402-0.7871c-0.0344-0.1962-0.0677-0.3927-0.0984-0.5895c-0.002-0.0129,0.02-0.0403,0.0347-0.0435
		c0.104-0.0224,0.2088-0.0417,0.3138-0.0593c0.1852-0.0311,0.3708-0.0599,0.556-0.0908c0.0456-0.0076,0.076-0.0138,0.0837,0.0535
		c0.0195,0.1698,0.0497,0.3384,0.0774,0.5072c0.0456,0.2774,0.0927,0.5545,0.139,0.8318c0.0611,0.3659,0.1226,0.7318,0.1831,1.0978
		c0.0492,0.2975,0.0962,0.5953,0.1461,0.8927c0.0513,0.3059,0.1054,0.6113,0.1571,0.9171c0.045,0.266,0.0885,0.5322,0.1323,0.7983
		C28.707,28.1154,28.7063,28.1332,28.7082,28.1691z"/>
</g>
<g id="XMLID_3_">
</g>
<g id="XMLID_6_">
</g>
<g id="XMLID_7_">
</g>
<g id="XMLID_8_">
</g>
<g id="XMLID_9_">
</g>
<g id="XMLID_10_">
</g>
</svg>
